<svg width="37" height="37" viewBox="0 0 37 37" fill="none" xmlns="http://www.w3.org/2000/svg">
<path fill-rule="evenodd" clip-rule="evenodd" d="M31.6089 5.37664C28.1312 1.91119 23.5059 0.00175822 18.5777 0C8.42274 0 0.15812 8.22409 0.154586 18.333C0.152819 21.5645 1.00172 24.7188 2.61383 27.4986L0 37L9.76631 34.4506C12.457 35.9117 15.4869 36.6809 18.5698 36.6818H18.5777C28.7309 36.6818 36.9965 28.4568 37 18.3479C37.0017 13.4487 35.0875 8.84298 31.6089 5.37752V5.37664ZM18.5777 33.5855H18.5715C15.8243 33.5847 13.1292 32.8497 10.7778 31.4616L10.2186 31.1311L4.42294 32.644L5.96968 27.0203L5.60574 26.4436C4.07312 24.0173 3.26309 21.2129 3.26486 18.3339C3.26839 9.9322 10.1373 3.09622 18.584 3.09622C22.6738 3.09798 26.5182 4.68479 29.4093 7.56563C32.3006 10.4456 33.8915 14.275 33.8897 18.3462C33.8861 26.7487 27.0173 33.5847 18.5777 33.5847V33.5855ZM26.9766 22.1729C26.5164 21.9435 24.2533 20.8358 23.831 20.6829C23.4088 20.5298 23.1023 20.4534 22.7957 20.9123C22.4892 21.3712 21.6068 22.4033 21.3382 22.7083C21.0697 23.0142 20.8011 23.0521 20.3409 22.8225C19.8807 22.5931 18.3975 22.1096 16.6388 20.5492C15.2705 19.3342 14.3464 17.8345 14.078 17.3756C13.8094 16.9167 14.0497 16.6688 14.2793 16.4411C14.486 16.2354 14.7396 15.9058 14.9701 15.6385C15.2007 15.3712 15.2767 15.1796 15.4303 14.8745C15.5841 14.5686 15.5072 14.3014 15.3924 14.0719C15.2775 13.8425 14.3571 11.5875 13.9728 10.6706C13.5991 9.77747 13.2194 9.89879 12.9376 9.88385C12.669 9.87065 12.3625 9.86802 12.0551 9.86802C11.7477 9.86802 11.2494 9.98231 10.8272 10.4412C10.405 10.9001 9.21599 12.0086 9.21599 14.2627C9.21599 16.5167 10.8653 18.6961 11.0958 19.002C11.3263 19.3079 14.342 23.9347 18.9593 25.9197C20.0574 26.3918 20.9151 26.674 21.5837 26.885C22.6862 27.234 23.6897 27.1848 24.4829 27.0669C25.3672 26.9351 27.2063 25.9584 27.5897 24.8885C27.973 23.8186 27.973 22.9008 27.8582 22.71C27.7434 22.5193 27.436 22.4041 26.9758 22.1747L26.9766 22.1729Z" fill="white"/>
</svg>
